<svg xmlns="http://www.w3.org/2000/svg" width="1200" height="630" viewBox="0 0 1200 630">
  <defs>
    <linearGradient id="bg" x1="0" y1="0" x2="1" y2="1">
      <stop offset="0" stop-color="#0b0d10"/>
      <stop offset="1" stop-color="#12161b"/>
    </linearGradient>
    <radialGradient id="a" cx="0.5" cy="0.2" r="0.9">
      <stop offset="0" stop-color="#2dd4bf" stop-opacity="0.45"/>
      <stop offset="1" stop-color="#2dd4bf" stop-opacity="0"/>
    </radialGradient>
    <radialGradient id="b" cx="0.15" cy="0.7" r="0.7">
      <stop offset="0" stop-color="#22d3ee" stop-opacity="0.4"/>
      <stop offset="1" stop-color="#22d3ee" stop-opacity="0"/>
    </radialGradient>
  </defs>
  <rect width="1200" height="630" fill="url(#bg)"/>
  <rect width="1200" height="630" fill="url(#a)"/>
  <rect width="1200" height="630" fill="url(#b)"/>
  <g stroke="#e7ecf2" stroke-opacity="0.045" stroke-width="1">
    <path d="M100 0V630M200 0V630M300 0V630M400 0V630M500 0V630M600 0V630M700 0V630M800 0V630M900 0V630M1000 0V630M1100 0V630"/>
    <path d="M0 90H1200M0 180H1200M0 270H1200M0 360H1200M0 450H1200M0 540H1200"/>
  </g>
  <g fill="#2dd4bf" fill-opacity="0.55">
    <rect x="520" y="240" width="26" height="26" rx="4"/>
    <rect x="580" y="200" width="26" height="26" rx="4"/>
    <rect x="640" y="280" width="26" height="26" rx="4"/>
    <rect x="700" y="220" width="26" height="26" rx="4"/>
    <rect x="560" y="320" width="26" height="26" rx="4"/>
    <rect x="660" y="360" width="26" height="26" rx="4"/>
  </g>
  <g stroke="#2dd4bf" stroke-opacity="0.3" stroke-width="1.5" fill="none">
    <path d="M533 266 L593 226 M593 226 L653 306 M653 306 L713 246 M573 346 L533 266 M673 386 L653 306"/>
  </g>
</svg>
