<svg xmlns="http://www.w3.org/2000/svg" width="1200" height="630" viewBox="0 0 1200 630">
  <defs>
    <linearGradient id="bg" x1="0" y1="0" x2="1" y2="1">
      <stop offset="0" stop-color="#0b0d10"/>
      <stop offset="1" stop-color="#14171c"/>
    </linearGradient>
    <radialGradient id="a" cx="0.8" cy="0.7" r="0.85">
      <stop offset="0" stop-color="#22d3ee" stop-opacity="0.45"/>
      <stop offset="1" stop-color="#22d3ee" stop-opacity="0"/>
    </radialGradient>
    <radialGradient id="b" cx="0.25" cy="0.25" r="0.7">
      <stop offset="0" stop-color="#475569" stop-opacity="0.55"/>
      <stop offset="1" stop-color="#475569" stop-opacity="0"/>
    </radialGradient>
  </defs>
  <rect width="1200" height="630" fill="url(#bg)"/>
  <rect width="1200" height="630" fill="url(#b)"/>
  <rect width="1200" height="630" fill="url(#a)"/>
  <g stroke="#e7ecf2" stroke-opacity="0.05" stroke-width="1">
    <path d="M130 0V630M260 0V630M390 0V630M520 0V630M650 0V630M780 0V630M910 0V630M1040 0V630"/>
    <path d="M0 126H1200M0 252H1200M0 378H1200M0 504H1200"/>
  </g>
  <g fill="none" stroke="#22d3ee" stroke-opacity="0.45" stroke-width="2">
    <path d="M300 480 C300 300 500 300 500 480 C500 300 700 300 700 480" />
  </g>
  <g fill="none" stroke="#38bdf8" stroke-opacity="0.3" stroke-width="2">
    <path d="M620 200 h220 a24 24 0 0 1 24 24 v90 a24 24 0 0 1 -24 24 h-220 a24 24 0 0 1 -24 -24 v-90 a24 24 0 0 1 24 -24 z"/>
  </g>
</svg>
