<svg xmlns="http://www.w3.org/2000/svg" width="1200" height="630" viewBox="0 0 1200 630">
  <defs>
    <linearGradient id="bg" x1="0" y1="0" x2="1" y2="1">
      <stop offset="0" stop-color="#0b0d10"/>
      <stop offset="1" stop-color="#14171c"/>
    </linearGradient>
    <radialGradient id="a" cx="0.72" cy="0.28" r="0.85">
      <stop offset="0" stop-color="#22d3ee" stop-opacity="0.55"/>
      <stop offset="1" stop-color="#22d3ee" stop-opacity="0"/>
    </radialGradient>
    <radialGradient id="b" cx="0.2" cy="0.85" r="0.7">
      <stop offset="0" stop-color="#38bdf8" stop-opacity="0.35"/>
      <stop offset="1" stop-color="#38bdf8" stop-opacity="0"/>
    </radialGradient>
  </defs>
  <rect width="1200" height="630" fill="url(#bg)"/>
  <rect width="1200" height="630" fill="url(#a)"/>
  <rect width="1200" height="630" fill="url(#b)"/>
  <g stroke="#e7ecf2" stroke-opacity="0.05" stroke-width="1">
    <path d="M120 0V630M240 0V630M360 0V630M480 0V630M600 0V630M720 0V630M840 0V630M960 0V630M1080 0V630"/>
    <path d="M105 0H1200M210 0H1200M315 0H1200M420 0H1200M525 0H1200" transform="rotate(0)"/>
    <path d="M0 105H1200M0 210H1200M0 315H1200M0 420H1200M0 525H1200"/>
  </g>
  <g fill="none" stroke="#22d3ee" stroke-opacity="0.5" stroke-width="2">
    <circle cx="860" cy="200" r="120"/>
    <circle cx="860" cy="200" r="70"/>
  </g>
  <circle cx="860" cy="200" r="8" fill="#22d3ee"/>
</svg>
